# xmcd CD database file
#
# Track frame offsets:
#	150
#	17475
#	27435
#	44468
#	62500
#	87698
#	103653
#	122928
#	140090
#	166633
#	188943
#	207298
#	219453
#	243225
#	271800
#	303078
#	330148
#
# Disc length: 4543 seconds
#
# Revision: 6
# Processed by: cddbd v1.5.2PL0 Copyright (c) Steve Scherf et al.
# Submitted via: CDex 1.70beta2
#
DISCID=e811bd11
DTITLE=Oscar Peterson - Piano Moods - The Definitive 1
DYEAR=1998
DGENRE=Jazz
TTITLE0=Oscar Peterson - Summertime
TTITLE1=Ed Thigpen, Peterson and Ray Brown - I Love Paris
TTITLE2=Oscar Peterson - Georgia On My Mind 
TTITLE3=Oscar Peterson - It Ain't Necessarily So
TTITLE4=Oscar Peterson Trio - Girl Talk
TTITLE5=Oscar Peterson Trio - People
TTITLE6=Oscar Peterson - Someone To Watch Over Me
TTITLE7=Oscar Peterson - This Guy's In Love With You
TTITLE8=Oscar Peterson - Waltz For Debby
TTITLE9=Oscar Peterson - Who Can I Turn To?
TTITLE10=Oscar Peterson - Yesterday
TTITLE11=Oscar Peterson Trio - Days Of Wine And Roses
TTITLE12=Oscar Peterson - Django
TTITLE13=Oscar Peterson - I Love You Porgy (I Want To Stay Here)
TTITLE14=Oscar Peterson Trio - It's Impossible
TTITLE15=Oscar Peterson - It Never Entered My Mind
TTITLE16=Ed Thigpen, Peterson and Ray Brown - Every Time We Say Goodbye
EXTD=YEAR: 1998
EXTT0=
EXTT1=
EXTT2=
EXTT3=
EXTT4=
EXTT5=
EXTT6=
EXTT7=
EXTT8=
EXTT9=
EXTT10=
EXTT11=
EXTT12=
EXTT13=
EXTT14=
EXTT15=
EXTT16=
PLAYORDER=
